<svg 
	width="20" 
	height="20" 
	viewBox="0 0 20 20" 
	fill="none" 
	xmlns="http://www.w3.org/2000/svg">
	<path 
		d="M1.66675 6.66667C1.66675 6.66667 5.39771 2.5 10.0001 2.5C14.6024 2.5 18.3334 6.66667 18.3334 6.66667" 
		stroke="black" 
		stroke-width="1.25" 
		stroke-linecap="round"/>
	<path 
		d="M17.9534 10.8708C18.2067 11.2261 18.3334 11.4037 18.3334 11.6667C18.3334 11.9296 18.2067 12.1072 17.9534 12.4625C16.815 14.0588 13.9077 17.5 10.0001 17.5C6.0924 17.5 3.18516 14.0588 2.04678 12.4625C1.79342 12.1072 1.66675 11.9296 1.66675 11.6667C1.66675 11.4037 1.79342 11.2261 2.04678 10.8708C3.18516 9.2745 6.0924 5.83333 10.0001 5.83333C13.9077 5.83333 16.815 9.2745 17.9534 10.8708Z" 
		stroke="black" 
		stroke-width="1.25"/>
	<path 
		d="M12.5 11.6667C12.5 10.2859 11.3807 9.16667 10 9.16667C8.61925 9.16667 7.5 10.2859 7.5 11.6667C7.5 13.0474 8.61925 14.1667 10 14.1667C11.3807 14.1667 12.5 13.0474 12.5 11.6667Z" 
		stroke="black" 
		stroke-width="1.25"/>
</svg>
