<svg width="20" height="20" viewBox="0 0 20 20" fill="none" xmlns="http://www.w3.org/2000/svg">
	<path 
		d="M9.99984 18.3333C14.6022 18.3333 18.3332 14.6024 18.3332 10C18.3332 5.39763 14.6022 1.66667 9.99984 1.66667C5.39746 1.66667 1.6665 5.39763 1.6665 10C1.6665 14.6024 5.39746 18.3333 9.99984 18.3333Z" 
		stroke="black" 
		stroke-width="1.25"/>
	<path 
		d="M6.25 14.1667C8.19308 12.1315 11.786 12.0357 13.75 14.1667M12.0792 7.91667C12.0792 9.06725 11.1452 10 9.99292 10C8.84075 10 7.90664 9.06725 7.90664 7.91667C7.90664 6.76607 8.84075 5.83333 9.99292 5.83333C11.1452 5.83333 12.0792 6.76607 12.0792 7.91667Z" 
		stroke="black" 
		stroke-width="1.25" 
		stroke-linecap="round"/>
</svg>
